<?xml version="1.0" standalone="no"?>
<!DOCTYPE svg PUBLIC "-//W3C//DTD SVG 20010904//EN"
 "http://www.w3.org/TR/2001/REC-SVG-20010904/DTD/svg10.dtd">
<svg version="1.0" xmlns="http://www.w3.org/2000/svg"
 width="1200.000000pt" height="1200.000000pt" viewBox="0 0 1200.000000 1200.000000"
 preserveAspectRatio="xMidYMid meet">
<metadata>
Created by potrace 1.11, written by Peter Selinger 2001-2013
</metadata>
<g transform="translate(0.000000,1200.000000) scale(0.100000,-0.100000)"
fill="#000000" stroke="none">
<path d="M3205 8860 l3140 -3140 1855 0 1855 0 939 3128 c516 1720 941 3133
943 3140 4 9 -1187 12 -5934 12 l-5938 0 3140 -3140z"/>
<path d="M0 5997 c0 -4747 3 -5938 12 -5934 7 2 1420 427 3140 943 l3128 939
0 1855 0 1855 -3140 3140 -3140 3140 0 -5938z"/>
<path d="M11057 8788 l-938 -3133 1 -1855 0 -1855 940 -940 940 -940 0 5928
c0 3260 -1 5927 -3 5927 -2 0 -425 -1410 -940 -3132z"/>
<path d="M3245 955 c-1694 -508 -3100 -930 -3125 -938 -40 -13 616 -15 5885
-16 l5930 -1 -940 940 -940 940 -1865 -1 -1865 -1 -3080 -923z"/>
</g>
</svg>
