<svg version="1.0" xmlns="http://www.w3.org/2000/svg" width="1600" height="1600" viewBox="0 0 1200 1200"><path d="M320.5 314l314 314h371l93.9-312.8c51.6-172 94.1-313.3 94.3-314C1194.1.3 1075 0 600.3 0H6.5l314 314zM0 600.3c0 474.7.3 593.8 1.2 593.4.7-.2 142-42.7 314-94.3l312.8-93.9v-371l-314-314L0 6.5v593.8zm1105.7-279.1l-93.8 313.3.1 185.5v185.5l94 94 94 94V600.7c0-326-.1-592.7-.3-592.7-.2 0-42.5 141-94 313.2zm-781.2 783.3c-169.4 50.8-310 93-312.5 93.8-4 1.3 61.6 1.5 588.5 1.6l593 .1-94-94-94-94-186.5.1-186.5.1-308 92.3z"/></svg>